<svg width="24" height="25" viewBox="0 0 24 25" fill="none" xmlns="http://www.w3.org/2000/svg">
<path d="M16.6299 23.9057V19.6899C16.6708 19.1705 16.6006 18.6483 16.4241 18.158C16.2475 17.6678 15.9686 17.2208 15.6059 16.8467C19.0265 16.4654 22.6214 15.1691 22.6214 9.22117C22.6211 7.70024 22.0361 6.23763 20.9874 5.13607C21.484 3.80543 21.4489 2.33462 20.8893 1.02919C20.8893 1.02919 19.6039 0.647912 16.6299 2.64144C14.1331 1.96475 11.5012 1.96475 9.00442 2.64144C6.03047 0.647912 4.74503 1.02919 4.74503 1.02919C4.18551 2.33462 4.15039 3.80543 4.64698 5.13607C3.59044 6.2458 3.0048 7.72163 3.01295 9.25385C3.01295 15.1582 6.60783 16.4545 10.0284 16.8794C9.67002 17.2497 9.39361 17.6914 9.21718 18.1756C9.04076 18.6599 8.96826 19.1758 9.00442 19.6899V23.9057M9.00442 20.6377C3.55763 22.2717 3.55763 17.9143 1.37891 17.3696L9.00442 20.6377Z" stroke="#131313" stroke-width="1.91044" stroke-linecap="round" stroke-linejoin="round"/>
</svg>
