<svg width="23" height="22" viewBox="0 0 23 22" fill="none" xmlns="http://www.w3.org/2000/svg">
<path d="M16.5 1H6.5C3.73858 1 1.5 3.23858 1.5 6V16C1.5 18.7614 3.73858 21 6.5 21H16.5C19.2614 21 21.5 18.7614 21.5 16V6C21.5 3.23858 19.2614 1 16.5 1Z" stroke="white" stroke-width="2" stroke-linecap="round" stroke-linejoin="round"/>
<path d="M15.5 10.3703C15.6234 11.2025 15.4812 12.0525 15.0937 12.7993C14.7062 13.5461 14.0931 14.1517 13.3416 14.53C12.5901 14.9082 11.7384 15.0399 10.9077 14.9062C10.0771 14.7726 9.30971 14.3804 8.71479 13.7855C8.11987 13.1905 7.72768 12.4232 7.59402 11.5925C7.46035 10.7619 7.59202 9.9102 7.97028 9.15868C8.34854 8.40716 8.95414 7.79404 9.70094 7.40654C10.4477 7.01904 11.2977 6.87689 12.13 7.0003C12.9789 7.12619 13.7648 7.52176 14.3716 8.12861C14.9785 8.73545 15.3741 9.52138 15.5 10.3703Z" stroke="white" stroke-width="2" stroke-linecap="round" stroke-linejoin="round"/>
<path d="M17 5.5H17.01" stroke="white" stroke-width="2" stroke-linecap="round" stroke-linejoin="round"/>
</svg>
