<svg width="24" height="24" viewBox="0 0 24 24" fill="none" xmlns="http://www.w3.org/2000/svg">
<path d="M17.5533 1L6.65969 1C3.6515 1 1.21289 3.43861 1.21289 6.4468L1.21289 17.3404C1.21289 20.3486 3.6515 22.7872 6.65969 22.7872L17.5533 22.7872C20.5615 22.7872 23.0001 20.3486 23.0001 17.3404L23.0001 6.4468C23.0001 3.43861 20.5615 1 17.5533 1Z" stroke="#131313" stroke-width="1.91044" stroke-linecap="round" stroke-linejoin="round"/>
<path d="M16.4636 11.2075C16.5981 12.1142 16.4432 13.0401 16.0211 13.8536C15.599 14.6671 14.9311 15.3269 14.1124 15.7389C13.2937 16.151 12.366 16.2944 11.4611 16.1488C10.5562 16.0032 9.72025 15.576 9.07217 14.9279C8.42408 14.2798 7.99685 13.4439 7.85124 12.539C7.70564 11.6341 7.84906 10.7063 8.26113 9.88764C8.67319 9.06896 9.3329 8.40106 10.1464 7.97894C10.96 7.55681 11.8859 7.40196 12.7925 7.53639C13.7173 7.67353 14.5734 8.10446 15.2345 8.76553C15.8956 9.4266 16.3265 10.2828 16.4636 11.2075Z" stroke="#131313" stroke-width="1.91044" stroke-linecap="round" stroke-linejoin="round"/>
<path d="M18.0977 5.90137H18.1101" stroke="#131313" stroke-width="1.91044" stroke-linecap="round" stroke-linejoin="round"/>
</svg>
