<svg width="29" height="24" viewBox="0 0 29 24" fill="none" xmlns="http://www.w3.org/2000/svg">
<path d="M28.1394 2.21948V9.55474H20.8741" stroke="black" stroke-width="1.64" stroke-linecap="round" stroke-linejoin="round"/>
<path d="M1.5 21.7798V14.4446H8.76524" stroke="black" stroke-width="1.64" stroke-linecap="round" stroke-linejoin="round"/>
<path d="M4.541 8.33237C5.15512 6.5802 6.19885 5.01366 7.57481 3.77891C8.95076 2.54416 10.6141 1.68144 12.4096 1.27127C14.2051 0.861101 16.0743 0.916837 17.8427 1.43328C19.6111 1.94972 21.2211 2.91004 22.5225 4.22462L28.1409 9.55491M1.50171 14.4451L7.12016 19.7754C8.42155 21.09 10.0316 22.0503 11.8 22.5667C13.5684 23.0832 15.4375 23.1389 17.233 22.7287C19.0285 22.3186 20.6919 21.4558 22.0678 20.2211C23.4438 18.9863 24.4875 17.4198 25.1016 15.6676" stroke="black" stroke-width="1.64" stroke-linecap="round" stroke-linejoin="round"/>
</svg>
