<svg width="24" height="23" viewBox="0 0 24 23" fill="none" xmlns="http://www.w3.org/2000/svg">
<path d="M16.251 7.53613C17.9845 7.53613 19.647 8.22476 20.8728 9.45053C22.0985 10.6763 22.7872 12.3388 22.7872 14.0723V21.6978H18.4297V14.0723C18.4297 13.4945 18.2002 12.9403 17.7916 12.5317C17.383 12.1231 16.8288 11.8936 16.251 11.8936C15.6732 11.8936 15.119 12.1231 14.7104 12.5317C14.3018 12.9403 14.0723 13.4945 14.0723 14.0723V21.6978H9.71484V14.0723C9.71484 12.3388 10.4035 10.6763 11.6292 9.45053C12.855 8.22476 14.5175 7.53613 16.251 7.53613Z" stroke="white" stroke-width="1.91044" stroke-linecap="round" stroke-linejoin="round"/>
<path d="M5.35744 8.625H1V21.6973H5.35744V8.625Z" stroke="white" stroke-width="1.91044" stroke-linecap="round" stroke-linejoin="round"/>
<path d="M3.17872 5.35744C4.38199 5.35744 5.35744 4.38199 5.35744 3.17872C5.35744 1.97545 4.38199 1 3.17872 1C1.97545 1 1 1.97545 1 3.17872C1 4.38199 1.97545 5.35744 3.17872 5.35744Z" stroke="white" stroke-width="1.91044" stroke-linecap="round" stroke-linejoin="round"/>
</svg>
