<svg width="29" height="24" viewBox="0 0 29 24" fill="none" xmlns="http://www.w3.org/2000/svg">
<path d="M27.6394 2.21948V9.55474H20.3741" stroke="white" stroke-width="1.91" stroke-linecap="round" stroke-linejoin="round"/>
<path d="M1 21.7798V14.4446H8.26524" stroke="white" stroke-width="1.91" stroke-linecap="round" stroke-linejoin="round"/>
<path d="M4.041 8.33237C4.65512 6.5802 5.69885 5.01366 7.07481 3.77891C8.45076 2.54416 10.1141 1.68144 11.9096 1.27127C13.7051 0.861101 15.5743 0.916837 17.3427 1.43328C19.1111 1.94972 20.7211 2.91004 22.0225 4.22462L27.6409 9.55491M1.00171 14.4451L6.62016 19.7754C7.92155 21.09 9.53156 22.0503 11.3 22.5667C13.0684 23.0832 14.9375 23.1389 16.733 22.7287C18.5285 22.3186 20.1919 21.4558 21.5678 20.2211C22.9438 18.9863 23.9875 17.4198 24.6016 15.6676" stroke="white" stroke-width="1.91" stroke-linecap="round" stroke-linejoin="round"/>
</svg>
